<?xml version="1.0" standalone="no"?><!DOCTYPE svg PUBLIC "-//W3C//DTD SVG 1.1//EN" "http://www.w3.org/Graphics/SVG/1.1/DTD/svg11.dtd"><svg t="1774001094466" class="icon" viewBox="0 0 1024 1024" version="1.1" xmlns="http://www.w3.org/2000/svg" p-id="6785" data-darkreader-inline-fill="" xmlns:xlink="http://www.w3.org/1999/xlink" width="200" height="200"><path d="M768.017655 229.517241H679.724138v52.965518h-35.310345V229.517241H255.982345C197.587862 229.517241 150.068966 277.02731 150.068966 335.421793v423.777104C150.068966 817.593379 197.583448 865.103448 255.982345 865.103448H432.551724v158.896552h52.965517v-158.896552h70.62069v158.896552h52.965517v-158.896552h158.914207c58.394483 0 105.913379-47.510069 105.913379-105.904551V335.421793C873.931034 277.02731 826.412138 229.517241 768.017655 229.517241zM679.724138 759.172414a17.655172 17.655172 0 0 1-17.655172 17.655172H361.931034a17.655172 17.655172 0 0 1-17.655172-17.655172v-123.586207a17.655172 17.655172 0 0 1 17.655172-17.655173h300.137932a17.655172 17.655172 0 0 1 17.655172 17.655173v123.586207z m-317.793104-264.827586v-35.310345h105.931035v35.310345H361.931034z m194.206897 0v-35.310345h105.931035v35.310345H556.137931z m211.862069-70.62069H256V370.758621h512v52.965517z" fill="#B976DD" p-id="6786" data-darkreader-inline-fill="" style="--darkreader-inline-fill: var(--darkreader-background-b976dd, #5b1f7b);"></path><path d="M662.068966 617.931034H361.931034a17.655172 17.655172 0 0 0-17.655172 17.655173v123.586207a17.655172 17.655172 0 0 0 17.655172 17.655172h300.137932a17.655172 17.655172 0 0 0 17.655172-17.655172v-123.586207a17.655172 17.655172 0 0 0-17.655172-17.655173z m-211.862069 141.24138h-35.310345v-123.586207h35.310345v123.586207z m158.896551 0h-35.310345v-123.586207h35.310345v123.586207z" fill="#D8F768" p-id="6787" data-darkreader-inline-fill="" style="--darkreader-inline-fill: var(--darkreader-background-d8f768, #586806);"></path><path d="M414.896552 635.586207h35.310345v123.586207h-35.310345zM573.793103 635.586207h35.310345v123.586207h-35.310345z" fill="#9AB040" p-id="6788" data-darkreader-inline-fill="" style="--darkreader-inline-fill: var(--darkreader-text-9ab040, #b1c55e);"></path><path d="M679.724138 282.482759V138.734345c30.380138-7.891862 52.965517-35.301517 52.965517-68.113655 0-38.938483-31.673379-70.62069-70.620689-70.62069-38.951724 0-70.62069 31.682207-70.62069 70.62069 0 32.812138 22.585379 60.221793 52.965517 68.113655V282.482759h35.310345z" fill="#8BE5DD" p-id="6789" data-darkreader-inline-fill="" style="--darkreader-inline-fill: var(--darkreader-background-8be5dd, #196f6a);"></path><path d="M256 370.758621h512v52.965517H256z" fill="#E1AD99" p-id="6790" data-darkreader-inline-fill="" style="--darkreader-inline-fill: var(--darkreader-background-e1ad99, #65311e);"></path><path d="M361.931034 459.034483h105.931035v35.310345H361.931034zM556.137931 459.034483h105.931035v35.310345H556.137931z" fill="#DBEEF7" p-id="6791" data-darkreader-inline-fill="" style="--darkreader-inline-fill: var(--darkreader-background-dbeef7, #0e2f3f);"></path></svg>